<svg id="visual" viewBox="0 0 900 600" width="900" height="600" xmlns="http://www.w3.org/2000/svg" xmlns:xlink="http://www.w3.org/1999/xlink" version="1.1"><rect x="0" y="0" width="900" height="600" fill="#002233"></rect><path d="M0 449L12.5 459C25 469 50 489 75 499.3C100 509.7 125 510.3 150 506.7C175 503 200 495 225 487C250 479 275 471 300 475.2C325 479.3 350 495.7 375 493.2C400 490.7 425 469.3 450 463.8C475 458.3 500 468.7 525 479.7C550 490.7 575 502.3 600 501.7C625 501 650 488 675 479.3C700 470.7 725 466.3 750 471.2C775 476 800 490 825 495.2C850 500.3 875 496.7 887.5 494.8L900 493L900 601L887.5 601C875 601 850 601 825 601C800 601 775 601 750 601C725 601 700 601 675 601C650 601 625 601 600 601C575 601 550 601 525 601C500 601 475 601 450 601C425 601 400 601 375 601C350 601 325 601 300 601C275 601 250 601 225 601C200 601 175 601 150 601C125 601 100 601 75 601C50 601 25 601 12.5 601L0 601Z" fill="#0066FF" stroke-linecap="round" stroke-linejoin="miter"></path></svg>