<svg id="visual" viewBox="0 0 960 540" width="960" height="540" xmlns="http://www.w3.org/2000/svg" xmlns:xlink="http://www.w3.org/1999/xlink" version="1.1"><path d="M0 131L80 131L160 120L240 120L320 125L400 114L480 109L560 131L640 131L720 114L800 120L880 147L960 114L960 0L880 0L800 0L720 0L640 0L560 0L480 0L400 0L320 0L240 0L160 0L80 0L0 0Z" fill="#7896e2"></path><path d="M0 368L80 303L160 303L240 303L320 368L400 330L480 287L560 347L640 352L720 347L800 330L880 374L960 293L960 112L880 145L800 118L720 112L640 129L560 129L480 107L400 112L320 123L240 118L160 118L80 129L0 129Z" fill="#3968d2"></path><path d="M0 541L80 541L160 541L240 541L320 541L400 541L480 541L560 541L640 541L720 541L800 541L880 541L960 541L960 291L880 372L800 328L720 345L640 350L560 345L480 285L400 328L320 366L240 301L160 301L80 301L0 366Z" fill="#274c9a"></path></svg>