<svg xmlns="http://www.w3.org/2000/svg" version="1.1" xmlns:xlink="http://www.w3.org/1999/xlink" xmlns:svgjs="http://svgjs.dev/svgjs" width="1440" height="560" preserveAspectRatio="none" viewBox="0 0 1440 560"><g mask="url(&quot;#SvgjsMask1079&quot;)" fill="none"><rect width="1440" height="560" x="0" y="0" fill="rgba(7, 7, 8, 1)"></rect><path d="M 0,78 C 96,118.2 288,291 480,279 C 672,267 768,22 960,18 C 1152,14 1344,210.8 1440,259L1440 560L0 560z" fill="rgba(10, 14, 14, 1)"></path><path d="M 0,454 C 48,428.6 144,306.6 240,327 C 336,347.4 384,546.4 480,556 C 576,565.6 624,380.6 720,375 C 816,369.4 864,520.6 960,528 C 1056,535.4 1104,422.8 1200,412 C 1296,401.2 1392,461.6 1440,474L1440 560L0 560z" fill="rgba(21, 25, 29, 1)"></path></g><defs><mask id="SvgjsMask1079"><rect width="1440" height="560" fill="#ffffff"></rect></mask></defs></svg>